HIERARCHY
ROOT Hips
{
	OFFSET -3.958830 18.904000 13.208200
	CHANNELS 6 Xposition Yposition Zposition Zrotation Yrotation Xrotation 
	JOINT LHipJoint
	{
		OFFSET 0.000000 0.000000 0.000000
		CHANNELS 3 Zrotation Yrotation Xrotation
		JOINT LeftUpLeg
		{
			OFFSET 1.800000 -1.400000 0.085000
			CHANNELS 3 Zrotation Yrotation Xrotation
			JOINT LeftLeg
			{
				OFFSET 2.215000 -6.000000 0.000000
				CHANNELS 3 Zrotation Yrotation Xrotation
				JOINT LeftFoot
				{
					OFFSET 2.500000 -6.900000 0.000000
					CHANNELS 3 Zrotation Yrotation Xrotation
					JOINT LeftToeBase
					{
						OFFSET 0.200000 -0.500000 1.950000
						CHANNELS 3 Zrotation Yrotation Xrotation
						End Site
						{
							OFFSET 0.000000 0.000000 0.000000
						}
					}
				}
			}
		}
	}
	JOINT RHipJoint
	{
		OFFSET 0.000000 0.000000 0.000000
		CHANNELS 3 Zrotation Yrotation Xrotation
		JOINT RightUpLeg
		{
			OFFSET -1.800000 -1.400000 0.085000
			CHANNELS 3 Zrotation Yrotation Xrotation
			JOINT RightLeg
			{
				OFFSET -2.215000 -6.000000 0.000000
				CHANNELS 3 Zrotation Yrotation Xrotation
				JOINT RightFoot
				{
					OFFSET -2.500000 -6.900000 0.000000
					CHANNELS 3 Zrotation Yrotation Xrotation
					JOINT RightToeBase
					{
						OFFSET -0.200000 -0.500000 1.950000
						CHANNELS 3 Zrotation Yrotation Xrotation
						End Site
						{
							OFFSET 0.000000 0.000000 0.000000
						}
					}
				}
			}
		}
	}
	JOINT LowerBack
	{
		OFFSET 0.000000 0.000000 0.000000
		CHANNELS 3 Zrotation Yrotation Xrotation
		JOINT Spine
		{
			OFFSET -0.087000 1.940000 -0.288900
			CHANNELS 3 Zrotation Yrotation Xrotation
			JOINT Spine1
			{
				OFFSET 0.000000 1.950000 0.060000
				CHANNELS 3 Zrotation Yrotation Xrotation
				JOINT Neck
				{
					OFFSET 0.000000 0.000000 0.000000
					CHANNELS 3 Zrotation Yrotation Xrotation
					JOINT Neck1
					{
						OFFSET 0.000000 1.600000 0.340000
						CHANNELS 3 Zrotation Yrotation Xrotation
						JOINT Head
						{
							OFFSET 0.000000 1.667000 -0.240000
							CHANNELS 3 Zrotation Yrotation Xrotation
							End Site
							{
								OFFSET 0.000000 0.000000 0.000000
							}
						}
					}
				}
				JOINT LeftShoulder
				{
					OFFSET 0.000000 0.000000 0.000000
					CHANNELS 3 Zrotation Yrotation Xrotation
					JOINT LeftArm
					{
						OFFSET 2.700000 1.550000 -0.730000
						CHANNELS 3 Zrotation Yrotation Xrotation
						JOINT LeftForeArm
						{
							OFFSET 5.450000 0.000000 0.000000
							CHANNELS 3 Zrotation Yrotation Xrotation
							JOINT LeftHand
							{
								OFFSET 3.450000 0.000000 0.000000
								CHANNELS 3 Zrotation Yrotation Xrotation
								JOINT LeftHandIndex1
								{
									OFFSET 0.750000 0.000000 0.000000
									CHANNELS 3 Zrotation Yrotation Xrotation
									End Site
									{
										OFFSET 0.000000 0.000000 0.000000
									}
								}
							}
						}
					}
				}
				JOINT RightShoulder
				{
					OFFSET 0.000000 0.000000 0.000000
					CHANNELS 3 Zrotation Yrotation Xrotation
					JOINT RightArm
					{
						OFFSET -2.700000 1.550000 -0.730000
						CHANNELS 3 Zrotation Yrotation Xrotation
						JOINT RightForeArm
						{
							OFFSET -5.450000 0.000000 0.000000
							CHANNELS 3 Zrotation Yrotation Xrotation
							JOINT RightHand
							{
								OFFSET -3.450000 0.000000 0.000000
								CHANNELS 3 Zrotation Yrotation Xrotation
								JOINT RightHandIndex1
								{
									OFFSET -0.750000 0.000000 0.000000
									CHANNELS 3 Zrotation Yrotation Xrotation
									End Site
									{
										OFFSET 0.000000 0.000000 0.000000
									}
								}
							}
						}
					}
				}
			}
		}
	}
}
MOTION
Frames: 10
Frame Time: 0.016667
-2.879470 17.155200 -1.696520 -3.421845 -15.561555 -5.549935 -15.054914 12.032177 1.718416 32.324678 5.141379 -0.078392 1.798953 6.750030 12.282281 -0.063151 6.475583 2.600073 0.351670 0.115580 -0.086240 18.629717 -8.696158 6.214914 -42.553856 10.396036 -25.574798 59.345880 -14.015602 13.211080 -1.967916 -8.850646 1.105526 -0.114610 0.888500 1.035350 -4.347899 -0.492840 -9.484099 8.440144 -0.240110 18.496392 -8.658935 0.271677 22.924660 6.353534 -3.744818 -21.100988 -5.385907 8.680352 64.831782 -2.489540 1.870800 -11.666510 -2.975896 -24.127444 13.815834 -44.432445 5.959267 -4.282914 -9.961296 -14.026180 -1.702405 -3.829685 2.852954 0.847450 0.329150 0.478670 0.611230 -6.939721 31.197973 14.135904 53.409299 73.279593 14.984941 -30.031046 70.790966 -25.082766 1.807819 -0.048945 0.002840 0.419860 0.165790 0.342920 
-2.990690 17.133430 -1.674420 -2.719918 -16.999142 -5.906085 -15.194581 12.144144 1.766555 32.330544 5.391383 1.558413 1.054702 7.011288 11.891026 -0.012344 6.699174 2.603396 0.317640 0.066400 -0.143560 18.495925 -8.597012 6.120400 -42.127644 10.216893 -24.739088 57.421608 -13.102988 12.325979 -1.878795 -8.704810 1.175872 -0.120730 0.981180 1.026470 -3.953853 -0.866651 -9.443735 6.291465 -0.121413 18.147484 -7.981831 -0.034159 23.542563 6.644539 -4.588046 -21.826775 -7.704298 10.120945 63.714457 -2.041730 1.595080 -10.632360 -1.197750 -20.497022 12.354321 -46.636027 6.720087 -5.598438 -11.719053 -16.091774 -1.744723 -3.851824 2.858690 0.835260 0.371080 0.427500 0.653560 -8.982094 28.256448 16.374767 57.136200 79.889362 24.332502 -51.012404 71.463154 -40.035806 2.273937 0.544124 -0.043400 0.468990 0.180470 0.364690 
-3.151290 17.103200 -1.641060 -2.225252 -19.883577 -6.063282 -15.407838 12.414925 1.809511 32.149573 5.895895 3.952597 0.937197 7.189247 11.433208 0.090173 6.895125 2.608943 0.297750 0.061590 -0.211410 18.288816 -8.336298 6.088303 -41.431364 10.746880 -24.207430 56.891247 -12.044839 11.305373 -1.816104 -8.574540 1.242850 -0.110640 1.046320 1.012260 -3.330255 -1.709690 -9.448756 3.761192 -0.568770 16.811542 -7.673435 -0.788392 26.897313 7.533616 -5.583175 -24.004633 -11.678018 12.715767 60.707768 -1.145960 1.548270 -9.646080 1.550170 -14.165387 9.537234 -51.839753 7.404081 -7.527583 -11.363677 -18.143116 -1.962936 -3.852132 2.897997 0.796960 0.397580 0.385070 0.696170 -13.008680 23.521855 24.882388 -109.810930 83.767774 -139.041974 -74.548354 72.924054 -58.340555 3.952553 -0.412313 -0.062510 0.484690 0.176750 0.403070 
-3.313030 17.084320 -1.614090 -2.165912 -20.944691 -6.358728 -15.383515 12.384231 1.719202 31.876703 6.128109 5.505904 1.338691 7.107751 10.934011 0.103700 6.904322 2.657758 0.314440 0.095490 -0.240510 18.325676 -8.349275 5.987214 -40.695504 11.104373 -23.094817 56.913303 -11.694528 10.938310 -1.784919 -8.571284 1.280627 -0.057400 1.078520 0.921390 -3.497385 -1.610582 -9.067763 4.388159 -1.010963 14.204196 -7.737679 -1.063039 29.782357 7.740146 -6.887641 -23.800672 -14.850662 13.980248 57.442448 0.843770 0.601020 -9.426440 2.891830 -12.115905 8.575132 -55.051499 7.107802 -7.883349 -13.086871 -15.943150 -2.071951 -3.815678 2.859235 0.783280 0.387760 0.326810 0.735310 -14.052421 23.247530 27.435258 -102.046921 78.173642 -132.971928 -88.003686 76.836387 -65.483027 3.925112 -0.097301 -0.122070 0.535500 0.137860 0.414370 
-3.463620 17.092490 -1.593410 -2.107327 -20.923196 -6.996463 -15.305080 12.452072 1.510724 31.037467 6.279821 5.627524 3.064316 6.818733 12.121915 0.086620 6.772744 2.730297 0.274470 0.055920 -0.291570 18.380525 -8.516454 6.019158 -40.292817 11.228650 -21.309003 57.622976 -11.415811 10.137189 -1.772178 -8.632331 1.279690 -0.064540 1.137810 0.901700 -3.709071 -1.380995 -8.880734 5.493511 -1.272577 13.379275 -8.278630 -1.238376 30.668102 8.050310 -7.174721 -23.713013 -15.117222 14.065090 56.871205 1.147460 0.046120 -7.359370 3.052910 -11.900530 8.507087 -56.525118 7.166384 -7.828229 -12.627077 -14.185920 -2.187927 -3.864774 2.838073 0.738040 0.423500 0.273660 0.751020 -14.537287 23.369469 27.799913 -100.505492 76.822838 -131.867195 -90.422912 77.406860 -65.857999 3.955724 -0.013756 -0.145660 0.551150 0.150230 0.435880 
-3.622880 17.087770 -1.584320 -2.066965 -20.318069 -7.642776 -15.211905 12.454040 1.338623 30.659583 6.394270 5.108053 4.467547 6.647609 13.440236 0.034380 6.688553 2.765313 0.220150 0.012780 -0.335600 18.455880 -8.719439 5.994389 -39.576629 11.340208 -20.151325 58.412797 -11.874762 10.437818 -1.769465 -8.750763 1.265359 -0.066860 1.184800 0.858150 -3.972333 -1.023437 -8.679196 6.657501 -1.382955 12.757354 -8.895082 -1.322828 30.890460 8.116939 -7.124265 -23.059019 -14.310666 13.593818 57.441120 0.668090 -0.443490 -6.143880 3.529288 -11.387197 8.355545 -57.202612 6.985077 -7.623581 -11.957094 -13.173820 -2.197318 -3.928496 2.767802 0.705470 0.456420 0.218820 0.736630 -15.121707 22.950396 27.030735 -99.988940 77.816308 -130.743246 -88.279321 76.450132 -64.469743 3.865601 -0.225299 -0.186910 0.594000 0.184620 0.437990 
-3.756740 17.089350 -1.572100 -1.937503 -19.891357 -8.294538 -15.136417 12.584647 1.308433 30.115563 6.428652 4.892517 5.360791 6.452663 14.193954 0.009323 6.602868 2.780639 0.261070 0.027890 -0.266300 18.484786 -8.878455 5.985072 -38.893460 11.604099 -19.478250 58.672924 -12.633291 11.455734 -1.822473 -8.849047 1.219358 -0.066450 1.138520 0.886400 -4.092313 -1.009399 -8.766732 7.800205 -1.537011 13.504889 -9.472552 -1.615527 30.155898 8.292153 -6.714831 -23.419201 -13.527348 13.640049 59.375160 -0.278260 0.046700 -6.037100 3.220619 -11.055207 8.270676 -58.146742 6.941729 -7.665771 -10.612626 -13.010409 -2.254662 -3.924314 2.784753 0.728020 0.439970 0.252290 0.727830 -15.515859 21.846346 27.015387 -103.197630 78.634509 -133.194473 -81.500550 75.625216 -61.951547 4.103833 -0.656970 -0.164930 0.563120 0.160710 0.414130 
-3.888190 17.094120 -1.555500 -2.510554 -18.211298 -8.551177 -14.941248 12.482633 1.311462 30.455717 6.113235 3.695841 5.890901 6.250702 14.453134 -0.003514 6.496957 2.784384 0.276660 0.049930 -0.241990 18.637344 -9.147034 5.911378 -37.495262 11.423934 -18.273436 58.517271 -13.140673 11.829297 -1.870864 -8.888394 1.196208 -0.078400 1.117030 0.936750 -4.597373 -0.500882 -8.788134 10.727862 -1.772902 14.380437 -10.145713 -2.053953 27.948361 7.961245 -6.382235 -22.872064 -11.544469 12.785201 61.285309 -1.332980 0.608780 -6.475970 3.281117 -12.107414 9.014231 -58.608878 6.649822 -7.792071 -9.529055 -13.693446 -2.254536 -3.942056 2.825157 0.724400 0.443540 0.296460 0.724600 -15.525625 21.431044 23.428596 -111.278383 86.195687 -140.436616 -74.657533 71.699745 -58.656598 3.618994 -0.232360 -0.117630 0.540310 0.159110 0.420650 
-4.018920 17.118050 -1.550190 -2.444213 -16.318059 -8.795826 -14.803250 12.315594 1.208659 30.066340 5.738656 2.249040 6.379055 5.953103 14.841871 -0.037811 6.261401 2.797484 0.305690 0.071010 -0.194400 18.752714 -9.472973 5.813531 -36.403937 10.997193 -17.673996 57.960173 -13.808606 12.551306 -1.915805 -8.914056 1.154190 -0.101380 1.037340 0.972440 -4.962556 0.298526 -8.648345 11.966648 -0.838988 13.847678 -8.303006 -1.257065 25.335672 7.328663 -6.623113 -21.085544 -9.909007 11.520113 64.858399 -1.730740 0.742940 -6.602530 3.105990 -17.003482 11.716562 -59.690127 6.202188 -8.268129 -8.150821 -15.194730 -2.324503 -3.886973 2.914500 0.743880 0.401920 0.353580 0.696160 -13.835427 25.734428 15.005884 54.368725 76.769558 24.148484 -67.097534 70.963581 -52.264770 2.104190 1.037933 -0.056520 0.479470 0.150390 0.407960 
-4.151880 17.137920 -1.562460 -2.288173 -14.878387 -9.086595 -14.727468 12.226575 1.142772 29.868025 5.530995 0.741236 6.304383 5.979936 15.832175 -0.064998 6.154205 2.800038 0.280720 0.079300 -0.229260 18.816256 -9.715468 5.690285 -35.211333 10.783219 -17.827626 57.055087 -14.741392 14.083911 -1.923591 -8.983560 1.147778 -0.109810 1.039230 0.957630 -5.146462 0.789377 -8.498550 12.727274 -0.475499 13.546829 -7.810881 -0.622491 25.076863 6.923981 -6.733973 -19.655006 -8.868441 10.321795 64.653287 -1.985660 0.199320 -7.249040 4.328428 -18.669888 12.528085 -60.242465 5.107289 -9.094056 -6.859398 -18.626124 -2.431005 -3.862122 2.934894 0.728350 0.401260 0.357250 0.687710 -14.140379 27.522256 11.979790 50.842162 68.686403 14.200088 -56.122419 76.731959 -46.482026 1.476057 1.272914 -0.045610 0.497450 0.168740 0.424690 
